<?xml version="1.0" encoding="UTF-8" standalone="no"?>
<!DOCTYPE svg PUBLIC "-//W3C//DTD SVG 1.1//EN" "http://www.w3.org/Graphics/SVG/1.1/DTD/svg11.dtd">
<svg xmlns="http://www.w3.org/2000/svg" xmlns:xlink="http://www.w3.org/1999/xlink" viewBox="0 0 800 498.744769874477">
  <title>Export to SVG</title>
  <desc>Generated by CADtoSVG Version 1.0: 06-10-2022 15:22:49</desc>
<polyline points="705.08,89.11 683.63,67.64 680.61,64.82 677.45,62.24 674.16,59.91 670.74,57.82 667.23,55.98 663.62,54.38 659.93,53.03 656.18,51.93 652.37,51.07 648.53,50.45 644.66,50.08 640.78,49.96 636.89,50.08 633.02,50.45 629.18,51.07 625.37,51.93 621.62,53.03 617.93,54.38 614.33,55.98 610.81,57.82 607.4,59.91 604.1,62.24 600.94,64.82 597.92,67.64 401.56,263.97 205.22,67.64 202.2,64.82 199.04,62.24 195.74,59.91 192.33,57.82 188.81,55.98 185.2,54.38 181.52,53.03 177.76,51.93 173.96,51.07 170.11,50.45 166.24,50.08 162.36,49.96 158.48,50.08 154.6,50.45 150.76,51.07 146.95,51.93 143.2,53.03 139.51,54.38 135.9,55.98 132.38,57.82 128.97,59.91 125.67,62.24 122.5,64.82 119.48,67.64 98.03,89.11 95.2,92.13 92.62,95.3 90.28,98.59 88.19,102 86.34,105.52 84.74,109.13 83.39,112.82 82.28,116.57 81.42,120.38 80.8,124.22 80.43,128.09 80.31,131.98 80.43,135.86 80.8,139.74 81.42,143.58 82.28,147.39 83.39,151.15 84.74,154.84 86.34,158.45 88.18,161.97 90.28,165.39 92.61,168.69 95.2,171.86 98.03,174.89 355.32,432.16 356.93,433.71 358.57,435.19 360.26,436.59 361.99,437.92 363.75,439.18 365.55,440.36 367.38,441.47 369.24,442.51 371.13,443.48 373.05,444.38 374.99,445.21 376.96,445.96 378.94,446.65 380.94,447.26 382.96,447.81 385,448.28 387.04,448.68 389.1,449.02 391.16,449.28 393.23,449.48 395.31,449.6 397.39,449.66 399.46,449.65 401.54,449.57 403.62,449.65 405.7,449.66 407.78,449.6 409.86,449.47 411.94,449.28 414.01,449.01 416.06,448.68 418.11,448.28 420.15,447.8 422.17,447.26 424.17,446.65 426.16,445.96 428.12,445.21 430.06,444.38 431.98,443.48 433.87,442.51 435.73,441.47 437.56,440.36 439.35,439.18 441.11,437.92 442.84,436.59 444.52,435.19 446.16,433.71 447.76,432.16 705.08,174.89 707.91,171.87 710.49,168.7 712.82,165.4 714.91,161.99 716.76,158.47 718.36,154.86 719.71,151.17 720.81,147.41 721.67,143.6 722.29,139.76 722.66,135.89 722.78,132 722.66,128.12 722.29,124.24 721.67,120.4 720.81,116.59 719.71,112.84 718.35,109.15 716.76,105.54 714.91,102.02 712.82,98.6 710.49,95.3 707.9,92.14 705.08,89.11 705.08,89.11 " style="stroke:none; fill:#0068C3;"/>
</svg>
