<?xml version="1.0" encoding="UTF-8" standalone="no"?>
<!DOCTYPE svg PUBLIC "-//W3C//DTD SVG 1.1//EN" "http://www.w3.org/Graphics/SVG/1.1/DTD/svg11.dtd">
<svg xmlns="http://www.w3.org/2000/svg" xmlns:xlink="http://www.w3.org/1999/xlink" viewBox="0 0 800 498.744769874477">
  <title>Export to SVG</title>
  <desc>Generated by CADtoSVG Version 1.0: 06-10-2022 15:23:53</desc>
<polyline points="98.01,410.51 119.46,431.98 122.48,434.8 125.64,437.38 128.93,439.71 132.35,441.8 135.86,443.64 139.47,445.24 143.16,446.59 146.91,447.69 150.72,448.55 154.56,449.17 158.43,449.54 162.31,449.66 166.2,449.54 170.07,449.17 173.91,448.55 177.72,447.69 181.47,446.59 185.16,445.24 188.76,443.64 192.28,441.8 195.69,439.71 198.99,437.38 202.15,434.8 205.17,431.98 401.53,235.65 597.87,431.98 600.89,434.8 604.05,437.38 607.35,439.71 610.76,441.8 614.28,443.64 617.89,445.24 621.57,446.59 625.33,447.69 629.13,448.55 632.98,449.17 636.85,449.54 640.73,449.66 644.61,449.54 648.49,449.17 652.33,448.55 656.14,447.69 659.89,446.59 663.58,445.24 667.19,443.64 670.71,441.8 674.12,439.71 677.42,437.38 680.59,434.8 683.61,431.98 705.06,410.51 707.89,407.49 710.47,404.32 712.81,401.03 714.9,397.62 716.75,394.1 718.35,390.49 719.7,386.8 720.81,383.05 721.67,379.24 722.29,375.4 722.66,371.53 722.78,367.64 722.66,363.76 722.29,359.88 721.67,356.04 720.81,352.23 719.7,348.47 718.35,344.78 716.75,341.17 714.91,337.65 712.81,334.23 710.48,330.93 707.89,327.76 705.06,324.73 447.77,67.46 446.16,65.91 444.52,64.43 442.83,63.03 441.1,61.7 439.34,60.44 437.54,59.26 435.71,58.15 433.85,57.11 431.96,56.14 430.04,55.24 428.1,54.41 426.13,53.66 424.15,52.97 422.15,52.36 420.13,51.81 418.09,51.34 416.05,50.94 413.99,50.6 411.93,50.34 409.86,50.14 407.78,50.02 405.7,49.96 403.63,49.97 401.55,50.05 399.47,49.97 397.39,49.96 395.31,50.02 393.23,50.15 391.15,50.34 389.08,50.61 387.03,50.94 384.98,51.34 382.94,51.82 380.92,52.36 378.92,52.97 376.93,53.66 374.97,54.41 373.03,55.24 371.11,56.14 369.22,57.11 367.36,58.15 365.53,59.26 363.74,60.44 361.98,61.7 360.25,63.03 358.57,64.43 356.93,65.91 355.33,67.46 98.01,324.73 95.18,327.75 92.6,330.92 90.27,334.22 88.18,337.63 86.33,341.15 84.73,344.76 83.38,348.45 82.28,352.21 81.42,356.02 80.8,359.86 80.43,363.73 80.31,367.62 80.43,371.5 80.8,375.38 81.42,379.22 82.28,383.03 83.38,386.78 84.74,390.47 86.33,394.08 88.18,397.6 90.27,401.02 92.6,404.32 95.19,407.48 98.01,410.51 98.01,410.51 " style="stroke:none; fill:#0068C3;"/>
</svg>
